<svg xmlns="http://www.w3.org/2000/svg" width="900" height="620" viewBox="0 0 900 620">
<rect width="100%" height="100%" fill="#ffffff"/>
<text x="24" y="30" font-family="Arial" font-size="16" fill="#111827">BrushifyCountryRoads / 00dcf5f0-43cb-4cd6-8c84-655c44ceae67</text>
<text x="24" y="52" font-family="Arial" font-size="12" fill="#4b5563">steps=20 x=[-395.79,-374.39] y=[-725.78,-708.31]</text>
<polyline points="756.26,560.00 742.67,548.93 729.01,537.29 715.95,526.96 702.91,516.55 690.03,506.13 677.13,495.70 664.33,485.12 651.40,474.52 638.63,463.94 625.75,453.38 612.84,442.94 599.98,432.48 587.08,422.01 574.18,411.58 560.21,399.94 470.76,327.12 361.82,237.99 252.75,149.00 143.74,60.00" fill="none" stroke="#2563eb" stroke-width="2.4" stroke-linejoin="round" stroke-linecap="round"/>
<line x1="756.26" y1="560.00" x2="742.62" y2="548.89" stroke="#dc2626" stroke-width="1.4" stroke-linecap="round" />
<polyline points="749.55,549.82 742.62,548.89 744.93,555.49" fill="none" stroke="#dc2626" stroke-width="1.4" stroke-linecap="round" stroke-linejoin="round" />
<line x1="729.01" y1="537.29" x2="715.91" y2="526.93" stroke="#dc2626" stroke-width="1.4" stroke-linecap="round" />
<polyline points="722.86,527.76 715.91,526.93 718.32,533.50" fill="none" stroke="#dc2626" stroke-width="1.4" stroke-linecap="round" stroke-linejoin="round" />
<line x1="702.91" y1="516.55" x2="689.96" y2="506.08" stroke="#dc2626" stroke-width="1.4" stroke-linecap="round" />
<polyline points="696.90,506.99 689.96,506.08 692.30,512.68" fill="none" stroke="#dc2626" stroke-width="1.4" stroke-linecap="round" stroke-linejoin="round" />
<line x1="677.13" y1="495.70" x2="664.30" y2="485.09" stroke="#dc2626" stroke-width="1.4" stroke-linecap="round" />
<polyline points="671.23,486.08 664.30,485.09 666.57,491.72" fill="none" stroke="#dc2626" stroke-width="1.4" stroke-linecap="round" stroke-linejoin="round" />
<line x1="651.40" y1="474.52" x2="638.58" y2="463.89" stroke="#dc2626" stroke-width="1.4" stroke-linecap="round" />
<polyline points="645.50,464.88 638.58,463.89 640.84,470.52" fill="none" stroke="#dc2626" stroke-width="1.4" stroke-linecap="round" stroke-linejoin="round" />
<line x1="625.75" y1="453.38" x2="612.79" y2="442.91" stroke="#dc2626" stroke-width="1.4" stroke-linecap="round" />
<polyline points="619.73,443.81 612.79,442.91 615.13,449.51" fill="none" stroke="#dc2626" stroke-width="1.4" stroke-linecap="round" stroke-linejoin="round" />
<line x1="599.98" y1="432.48" x2="587.06" y2="421.99" stroke="#dc2626" stroke-width="1.4" stroke-linecap="round" />
<polyline points="593.99,422.91 587.06,421.99 589.38,428.59" fill="none" stroke="#dc2626" stroke-width="1.4" stroke-linecap="round" stroke-linejoin="round" />
<line x1="574.18" y1="411.58" x2="560.17" y2="399.91" stroke="#dc2626" stroke-width="1.4" stroke-linecap="round" />
<polyline points="567.10,400.92 560.17,399.91 562.41,406.54" fill="none" stroke="#dc2626" stroke-width="1.4" stroke-linecap="round" stroke-linejoin="round" />
<line x1="470.76" y1="327.12" x2="361.58" y2="237.79" stroke="#dc2626" stroke-width="1.4" stroke-linecap="round" />
<polyline points="368.52,238.74 361.58,237.79 363.88,244.40" fill="none" stroke="#dc2626" stroke-width="1.4" stroke-linecap="round" stroke-linejoin="round" />
<line x1="252.75" y1="149.00" x2="143.57" y2="59.86" stroke="#dc2626" stroke-width="1.4" stroke-linecap="round" />
<polyline points="150.50,60.80 143.57,59.86 145.87,66.47" fill="none" stroke="#dc2626" stroke-width="1.4" stroke-linecap="round" stroke-linejoin="round" />
<circle cx="756.26" cy="560.00" r="4.5" fill="#16a34a"/>
<circle cx="143.74" cy="60.00" r="4.5" fill="#111827"/>
<text x="24" y="584" font-family="Arial" font-size="12" fill="#4b5563">blue: x-y trajectory, red: vx/vy action arrows, green: start, black: end</text>
</svg>
